<?xml version="1.0" encoding="UTF-8"?>
<svg width="140px" height="140px" viewBox="0 0 140 140" version="1.1" xmlns="http://www.w3.org/2000/svg" xmlns:xlink="http://www.w3.org/1999/xlink">
    <!-- Generator: Sketch 54.1 (76490) - https://sketchapp.com -->
    <title>business</title>
    <desc>Created with Sketch.</desc>
    <g id="页面1" stroke="none" stroke-width="1" fill="none" fill-rule="evenodd">
        <g id="首页-1920-首页1" transform="translate(-890.000000, -1350.000000)">
            <g id="编组-9" transform="translate(0.000000, 980.000000)">
                <g id="公司业务" transform="translate(780.000000, 270.000000)">
                    <g id="business" transform="translate(110.000000, 100.000000)">
                        <circle id="椭圆形" fill="#ED8500" cx="70" cy="70" r="70"></circle>
                        <g id="技术-(1)" transform="translate(37.000000, 41.400000)" stroke="#FFFFFF" stroke-width="4">
                            <path d="M33.87316,41.5008489 L33.9160907,41.5013097 C41.0848798,41.6552257 48.2143402,40.4120139 54.8730802,37.8528786 C60.3365448,35.6613966 63.2677519,32.6077656 63.3701922,29.5776108 C63.470811,26.501488 60.5859727,23.3247642 54.880503,20.7825309 C47.9067679,18.0175516 40.4640184,16.6010814 32.9512388,16.6095648 L31.4649074,16.6092378 C24.297389,16.4796159 17.1686338,17.6795919 10.5011505,20.1260299 C5.03768604,22.3175119 2.10647894,25.3711429 2.00403859,28.4012977 C1.90341983,31.4774206 4.78825805,34.6541443 10.4896394,37.1947619 C17.4818854,39.949311 24.9242427,41.4088853 32.422992,41.5008489 L33.87316,41.5008489 Z" id="路径" fill-rule="nonzero"></path>
                            <path d="M46.584718,55.3942988 L46.6028499,55.394381 C47.7710713,55.4049724 48.9194307,55.0920246 49.8568694,54.5302508 C52.4755194,52.818765 53.4818229,48.4663894 52.3054174,42.3438093 C50.6880034,35.002763 47.6467247,28.0501336 43.3208918,21.830755 C39.7894672,16.4226018 35.4632622,11.5774633 30.5362003,7.497201 C26.0299625,3.99552639 22.0703172,2.22861536 18.8638541,2.22756748 C17.722724,2.19061349 16.5968224,2.49744116 15.6564362,3.09266332 C13.0377861,4.80414911 12.0314826,9.15652477 13.2078881,15.2791048 C14.8253022,22.6201512 17.8665809,29.5727805 22.1924137,35.7921591 C25.7238384,41.2003123 30.0500434,46.0454509 34.9771053,50.1257131 C39.483343,53.6273878 43.4429883,55.3942988 46.584718,55.3942988 Z" id="路径" fill-rule="nonzero"></path>
                            <path d="M46.584718,55.3942988 L46.6028499,55.394381 C47.7710713,55.4049724 48.9194307,55.0920246 49.8568694,54.5302508 C52.4755194,52.818765 53.4818229,48.4663894 52.3054174,42.3438093 C50.6880034,35.002763 47.6467247,28.0501336 43.3208918,21.830755 C39.7894672,16.4226018 35.4632622,11.5774633 30.5362003,7.497201 C26.0299625,3.99552639 22.0703172,2.22861536 18.8638541,2.22756748 C17.722724,2.19061349 16.5968224,2.49744116 15.6564362,3.09266332 C13.0377861,4.80414911 12.0314826,9.15652477 13.2078881,15.2791048 C14.8253022,22.6201512 17.8665809,29.5727805 22.1924137,35.7921591 C25.7238384,41.2003123 30.0500434,46.0454509 34.9771053,50.1257131 C39.483343,53.6273878 43.4429883,55.3942988 46.584718,55.3942988 Z" id="路径" fill-rule="nonzero" transform="translate(32.756653, 28.809611) scale(-1, 1) translate(-32.756653, -28.809611) "></path>
                            <circle id="椭圆形" cx="32.6857143" cy="28.9142857" r="4.91428571"></circle>
                        </g>
                    </g>
                </g>
            </g>
        </g>
    </g>
</svg>