<?xml version="1.0" encoding="UTF-8"?>
<svg width="160px" height="48px" viewBox="0 0 160 48" version="1.1" xmlns="http://www.w3.org/2000/svg" xmlns:xlink="http://www.w3.org/1999/xlink">
    <title>logo</title>
    <g id="研报网页" stroke="none" stroke-width="1" fill="none" fill-rule="evenodd">
        <g id="研报首页" transform="translate(-360.000000, -16.000000)" fill-rule="nonzero">
            <g id="logo" transform="translate(360.000000, 16.000000)">
                <g id="编组" transform="translate(47.504651, 15.767501)" fill="#4B4948">
                    <g transform="translate(0.000000, 20.619040)">
                        <g>
                            <path d="M4.02273424,0.990522501 C4.02273424,1.09159623 3.96209,1.11181097 3.90144577,1.13202571 L2.60770209,1.13202571 L2.58748735,1.13202571 L2.58748735,6.10485296 C2.58748735,6.24635618 2.48641362,6.24635618 2.44598413,6.24635618 L1.61717959,6.24635618 C1.5767501,6.24635618 1.47567638,6.24635618 1.47567638,6.10485296 L1.47567638,1.15224046 L1.47567638,1.13202571 L0.161717959,1.13202571 C0.101073725,1.13202571 0.0404294898,1.09159623 0.0404294898,0.990522501 L0.0404294898,0.262791684 C0.0404294898,0.141503214 0.121288469,0.121288469 0.181932704,0.121288469 L3.90144577,0.121288469 C3.96209,0.121288469 4.04294898,0.141503214 4.04294898,0.262791684 L4.04294898,0.990522501 L4.02273424,0.990522501 Z" id="XMLID_30_"></path>
                            <path d="M8.40933388,0.121288469 L5.15475995,0.121288469 C5.11433046,0.121288469 5.05368623,0.141503214 5.03347148,0.262791684 L5.03347148,6.10485296 C5.03347148,6.24635618 5.13454521,6.24635618 5.1749747,6.24635618 L6.00377924,6.24635618 C6.04420873,6.24635618 6.1654972,6.24635618 6.1654972,6.10485296 L6.1654972,3.69929832 L8.12632745,3.69929832 C8.18697169,3.69929832 8.24761592,3.61843934 8.24761592,3.5577951 L8.24761592,2.83006429 C8.24761592,2.7896348 8.24761592,2.68856107 8.10611271,2.68856107 L6.1654972,2.68856107 L6.1654972,1.15224046 L6.18571194,1.15224046 L8.44976337,1.15224046 C8.57105184,1.13202571 8.57105184,1.03095199 8.57105184,1.01073725 L8.57105184,0.303221174 C8.5508371,0.242576939 8.5508371,0.121288469 8.40933388,0.121288469" id="XMLID_29_"></path>
                        </g>
                        <g transform="translate(10.511667, 0.000000)">
                            <path d="M25.3492901,0.121288469 L24.5609151,0.121288469 C24.5204856,0.121288469 24.4194119,0.121288469 24.4194119,0.262791684 L24.4194119,4.10359322 L22.3170784,0.222362194 C22.2968636,0.181932704 22.2766489,0.161717959 22.2564341,0.141503214 C22.2160047,0.101073725 22.1755752,0.101073725 22.1553604,0.101073725 L21.3669854,0.101073725 C21.3265559,0.101073725 21.2254822,0.101073725 21.2254822,0.242576939 L21.2254822,6.08463822 C21.2254822,6.22614143 21.3265559,6.22614143 21.3669854,6.22614143 L22.1553604,6.22614143 C22.1957899,6.22614143 22.2968636,6.22614143 22.2968636,6.08463822 L22.2968636,2.24383669 L24.3587676,6.12506771 C24.4396266,6.24635618 24.5204856,6.22614143 24.5609151,6.22614143 L24.5609151,6.22614143 L25.3492901,6.22614143 L25.3492901,6.22614143 C25.3897196,6.22614143 25.4907933,6.22614143 25.4907933,6.08463822 L25.4907933,0.242576939 C25.4907933,0.121288469 25.3897196,0.121288469 25.3492901,0.121288469 Z" id="XMLID_28_"></path>
                            <path d="M1.15224046,0.121288469 L0.303221174,0.121288469 C0.262791684,0.121288469 0.161717959,0.121288469 0.161717959,0.262791684 L0.161717959,6.10485296 C0.161717959,6.24635618 0.262791684,6.24635618 0.303221174,6.24635618 L1.15224046,6.24635618 C1.19266995,6.24635618 1.29374367,6.24635618 1.29374367,6.10485296 L1.29374367,0.262791684 C1.29374367,0.121288469 1.19266995,0.121288469 1.15224046,0.121288469" id="XMLID_27_"></path>
                            <path d="M36.6291178,0.121288469 L35.8003132,0.121288469 C35.7598837,0.121288469 35.65881,0.121288469 35.65881,0.262791684 L35.65881,6.10485296 C35.65881,6.24635618 35.7598837,6.24635618 35.8003132,6.24635618 L36.6291178,6.24635618 C36.6695473,6.24635618 36.770621,6.24635618 36.770621,6.10485296 L36.770621,0.262791684 C36.7504062,0.121288469 36.6493325,0.121288469 36.6291178,0.121288469" id="XMLID_26_"></path>
                            <path d="M56.3587088,5.25583368 L54.0340131,5.25583368 L54.0340131,0.262791684 C54.0340131,0.121288469 53.9329394,0.121288469 53.8925099,0.121288469 L53.0637054,0.121288469 C53.0232759,0.121288469 52.9222022,0.121288469 52.9222022,0.262791684 L52.9222022,5.37712215 C52.9222022,5.37712215 52.9222022,5.37712215 52.9222022,5.39733689 L52.9222022,6.12506771 C52.9222022,6.1654972 52.9222022,6.18571194 52.9424169,6.20592669 C52.9424169,6.20592669 52.9424169,6.20592669 52.9424169,6.20592669 C52.9424169,6.22614143 52.9626317,6.22614143 52.9828464,6.24635618 C52.9828464,6.24635618 53.0030612,6.24635618 53.0030612,6.24635618 C53.0030612,6.24635618 53.0232759,6.24635618 53.0232759,6.24635618 C53.0232759,6.24635618 53.0434906,6.24635618 53.0434906,6.24635618 C53.0434906,6.24635618 53.0434906,6.24635618 53.0434906,6.24635618 L53.0637054,6.24635618 L53.8925099,6.24635618 L56.3789236,6.24635618 C56.4395678,6.24635618 56.500212,6.20592669 56.500212,6.10485296 L56.500212,5.37712215 C56.4799973,5.27604842 56.419353,5.25583368 56.3587088,5.25583368 Z" id="XMLID_25_"></path>
                            <path d="M12.7150745,1.13202571 L12.7150745,1.13202571 L15.0397702,1.13202571 C15.1610587,1.11181097 15.1610587,1.01073725 15.1610587,0.990522501 L15.1610587,0.283006429 C15.1610587,0.242576939 15.1610587,0.141503214 15.0195555,0.141503214 L11.7447668,0.141503214 C11.7043373,0.141503214 11.6032636,0.141503214 11.6032636,0.283006429 L11.6032636,6.12506771 C11.6032636,6.26657092 11.7043373,6.26657092 11.7447668,6.26657092 L15.0195555,6.26657092 C15.1004144,6.26657092 15.1408439,6.20592669 15.1408439,6.12506771 L15.1408439,5.39733689 C15.1408439,5.3569074 15.1408439,5.25583368 14.9993407,5.25583368 L12.7150745,5.25583368 L12.7150745,5.25583368 C12.7150745,5.25583368 12.7150745,5.25583368 12.7150745,5.23561893 L12.7150745,3.71951306 C12.7150745,3.71951306 12.7150745,3.69929832 12.7150745,3.69929832 C12.7150745,3.69929832 12.7150745,3.69929832 12.7352893,3.69929832 L14.6354753,3.69929832 C14.736549,3.69929832 14.7769785,3.65886883 14.7769785,3.5577951 L14.7769785,2.83006429 C14.7769785,2.72899056 14.736549,2.68856107 14.6354753,2.68856107 L12.7352893,2.68856107 L12.7150745,2.68856107 C12.7150745,2.68856107 12.7150745,2.66834633 12.7150745,2.66834633 L12.7150745,1.13202571 C12.7150745,1.13202571 12.7150745,1.13202571 12.7150745,1.13202571" id="XMLID_24_"></path>
                            <path d="M6.42828888,0.121288469 L5.63991383,0.121288469 C5.59948434,0.121288469 5.49841062,0.121288469 5.49841062,0.262791684 L5.49841062,4.10359322 L3.39607714,0.222362194 C3.3758624,0.181932704 3.35564766,0.161717959 3.33543291,0.141503214 C3.29500342,0.101073725 3.25457393,0.101073725 3.23435919,0.101073725 L2.44598413,0.101073725 C2.40555464,0.101073725 2.30448092,0.101073725 2.30448092,0.242576939 L2.30448092,6.08463822 C2.30448092,6.22614143 2.40555464,6.22614143 2.44598413,6.22614143 L3.23435919,6.22614143 C3.27478868,6.22614143 3.3758624,6.22614143 3.3758624,6.08463822 L3.3758624,2.24383669 L5.43776638,6.12506771 C5.51862536,6.24635618 5.59948434,6.22614143 5.63991383,6.22614143 L5.63991383,6.22614143 L6.42828888,6.22614143 L6.42828888,6.22614143 C6.46871837,6.22614143 6.5697921,6.22614143 6.5697921,6.08463822 L6.5697921,0.242576939 C6.5697921,0.121288469 6.46871837,0.121288469 6.42828888,0.121288469 Z" id="XMLID_23_"></path>
                            <path d="M20.3360334,6.12506771 L19.1231487,3.67908357 L19.1231487,3.65886883 L19.1433634,3.65886883 C19.4667993,3.53758036 20.2147449,3.11307072 20.2147449,2.00125975 C20.2147449,1.15224046 19.8306648,0.141503214 17.991123,0.141503214 L16.3335139,0.141503214 C16.2930844,0.141503214 16.1920107,0.141503214 16.1920107,0.283006429 L16.1920107,6.12506771 C16.1920107,6.26657092 16.2930844,6.26657092 16.3335139,6.26657092 L17.1623184,6.26657092 C17.2027479,6.26657092 17.3038216,6.26657092 17.3038216,6.12506771 L17.3038216,3.84080153 L17.3240364,3.84080153 L18.0921967,3.84080153 L18.1326262,3.86101628 L19.1837929,6.1654972 C19.2040077,6.20592669 19.2444372,6.24635618 19.3252961,6.24635618 C19.3252961,6.24635618 20.2753891,6.24635618 20.3158186,6.24635618 C20.3360334,6.24635618 20.3562481,6.18571194 20.3360334,6.12506771 Z M18.071982,2.9715675 L17.2633922,2.9715675 L17.2633922,2.95135276 L17.2633922,1.11181097 L18.071982,1.11181097 C18.5167063,1.11181097 19.0422897,1.21288469 19.0422897,2.02147449 C19.0422897,2.91092327 18.3145589,2.9715675 18.071982,2.9715675 L18.071982,2.9715675 Z" id="形状"></path>
                            <path d="M41.7232335,1.1724552 C41.3795828,0.505368623 40.7124962,0.121288469 39.863477,0.121288469 C38.9942429,0.121288469 38.3473711,0.485153878 38.0037204,1.1724552 C37.801573,1.55653536 37.7611435,1.94061551 37.7611435,2.42576939 L37.7611435,3.96209 C37.7611435,4.44724388 37.801573,4.81110929 38.0037204,5.21540419 C38.3473711,5.90270551 39.0144577,6.26657092 39.863477,6.26657092 C40.732711,6.26657092 41.3795828,5.90270551 41.7232335,5.21540419 C41.9253809,4.83132403 41.9658104,4.44724388 41.9658104,3.96209 L41.9658104,2.42576939 C41.9658104,1.94061551 41.9253809,1.55653536 41.7232335,1.1724552 M39.863477,5.29626317 C39.0346724,5.29626317 38.8527397,4.60896184 38.8527397,4.04294898 L38.8527397,2.34491041 C38.8527397,1.77889755 39.0346724,1.09159623 39.863477,1.09159623 C40.6922815,1.09159623 40.8742142,1.77889755 40.8742142,2.34491041 L40.8742142,4.04294898 C40.8742142,4.60896184 40.7124962,5.29626317 39.863477,5.29626317" id="形状"></path>
                            <path d="M11.0776802,0.990522501 C11.0776802,1.09159623 11.017036,1.11181097 10.9563917,1.13202571 L9.66264807,1.13202571 L9.64243332,1.13202571 L9.64243332,6.10485296 C9.64243332,6.24635618 9.5413596,6.24635618 9.50093011,6.24635618 L8.67212557,6.24635618 C8.63169608,6.24635618 8.53062235,6.24635618 8.53062235,6.10485296 L8.53062235,1.15224046 L8.53062235,1.13202571 L7.21666393,1.13202571 C7.1560197,1.13202571 7.09537546,1.09159623 7.09537546,0.990522501 L7.09537546,0.262791684 C7.09537546,0.141503214 7.17623444,0.121288469 7.23687868,0.121288469 L10.9563917,0.121288469 C11.017036,0.121288469 11.097895,0.141503214 11.097895,0.262791684 L11.097895,0.990522501 L11.0776802,0.990522501 Z" id="XMLID_18_"></path>
                            <path d="M34.627858,0.990522501 C34.627858,1.09159623 34.5672138,1.11181097 34.5065696,1.13202571 L33.2128259,1.13202571 L33.1926111,1.13202571 L33.1926111,6.10485296 C33.1926111,6.24635618 33.0915374,6.24635618 33.0511079,6.24635618 L32.2223034,6.24635618 C32.1818739,6.24635618 32.0808002,6.24635618 32.0808002,6.10485296 L32.0808002,1.15224046 L32.0808002,1.13202571 L30.7668418,1.13202571 C30.7061975,1.13202571 30.6455533,1.09159623 30.6455533,0.990522501 L30.6455533,0.262791684 C30.6455533,0.141503214 30.7264123,0.121288469 30.7870565,0.121288469 L34.5065696,0.121288469 C34.5672138,0.121288469 34.6480728,0.141503214 34.6480728,0.262791684 L34.6480728,0.990522501 L34.627858,0.990522501 Z" id="XMLID_17_"></path>
                            <path d="M47.1003556,0.121288469 L46.2715511,0.121288469 C46.2311216,0.121288469 46.1300479,0.121288469 46.1300479,0.262791684 L46.1300479,4.00251949 L44.1287881,0.222362194 C44.1085734,0.181932704 44.0883587,0.161717959 44.0681439,0.141503214 C44.0277144,0.101073725 43.9872849,0.101073725 43.9670702,0.101073725 L43.1382656,0.101073725 C43.0978361,0.101073725 42.9967624,0.101073725 42.9967624,0.242576939 L42.9967624,6.08463822 C42.9967624,6.22614143 43.0978361,6.22614143 43.1382656,6.22614143 L43.9670702,6.22614143 C44.0074997,6.22614143 44.1085734,6.22614143 44.1085734,6.08463822 L44.1085734,2.36512515 L46.0896184,6.12506771 C46.1704774,6.24635618 46.2513364,6.22614143 46.2917658,6.22614143 L46.2917658,6.22614143 L47.1205704,6.22614143 L47.1205704,6.22614143 C47.1609999,6.22614143 47.2620736,6.22614143 47.2620736,6.08463822 L47.2620736,0.242576939 C47.2418589,0.121288469 47.1407851,0.121288469 47.1003556,0.121288469 Z" id="XMLID_16_"></path>
                            <path d="M28.8868705,0.242576939 C28.8868705,0.242576939 28.846441,0.121288469 28.7251525,0.121288469 C28.6442935,0.121288469 27.977207,0.121288469 27.896348,0.121288469 C27.7750595,0.121288469 27.73463,0.242576939 27.73463,0.242576939 L25.996162,6.10485296 C25.9759472,6.18571194 26.0163767,6.24635618 26.0770209,6.24635618 L26.8451812,6.24635618 C26.946255,6.24635618 27.0068992,6.18571194 27.0473287,6.10485296 L27.3505499,5.09411572 L29.2709506,5.09411572 L29.5741718,6.10485296 C29.5943865,6.18571194 29.6752455,6.24635618 29.7763193,6.24635618 L30.5444796,6.24635618 C30.6253385,6.24635618 30.6455533,6.1654972 30.6253385,6.10485296 L28.8868705,0.242576939 Z M27.6335563,4.14402271 L28.3006429,1.90018602 L28.9677295,4.14402271 L27.6335563,4.14402271 Z" id="形状"></path>
                            <path d="M50.6581507,0.242576939 C50.6581507,0.242576939 50.6177213,0.121288469 50.4964328,0.121288469 C50.4155738,0.121288469 49.7484872,0.121288469 49.6676282,0.121288469 C49.5463398,0.121288469 49.5059103,0.242576939 49.5059103,0.242576939 L47.7674422,6.10485296 C47.7472275,6.18571194 47.787657,6.24635618 47.8483012,6.24635618 L48.6164615,6.24635618 C48.7175352,6.24635618 48.7781795,6.18571194 48.818609,6.10485296 L49.1218301,5.09411572 L51.0422309,5.09411572 L51.3454521,6.10485296 C51.3656668,6.18571194 51.4465258,6.24635618 51.5475995,6.24635618 L52.3157598,6.24635618 C52.3966188,6.24635618 52.4168336,6.1654972 52.3966188,6.10485296 L50.6581507,0.242576939 Z M49.4048366,4.14402271 L50.0719231,1.90018602 L50.7390097,4.14402271 L49.4048366,4.14402271 Z" id="形状"></path>
                        </g>
                        <g transform="translate(68.932280, 0.000000)">
                            <path d="M2.34491041,2.60770209 C2.06190398,2.46619888 1.7991123,2.36512515 1.61717959,2.2034072 C1.43524689,2.06190398 1.33417316,1.87997128 1.33417316,1.71825332 C1.33417316,1.25331418 1.71825332,1.01073725 2.44598413,1.01073725 C2.9715675,1.01073725 3.3758624,1.19266995 3.49715087,1.25331418 L3.5577951,1.27352893 C3.59822459,1.27352893 3.65886883,1.23309944 3.65886883,1.1724552 L3.65886883,0.525583368 C3.65886883,0.464939133 3.63865408,0.424509643 3.57800985,0.384080153 C3.49715087,0.323435919 2.9715675,0.121288469 2.24383669,0.121288469 C1.63739434,0.121288469 1.09159623,0.303221174 0.747945562,0.606442347 C0.424509643,0.889448776 0.242576939,1.27352893 0.242576939,1.69803857 C0.242576939,2.00125975 0.363865408,2.32469566 0.464939133,2.48641362 C0.788375052,2.99178225 1.31395842,3.25457393 1.7991123,3.47693612 C2.04168924,3.59822459 2.28426617,3.71951306 2.46619888,3.84080153 C2.70877582,4.02273424 2.83006429,4.24509643 2.83006429,4.50788812 C2.83006429,4.7706798 2.70877582,4.97282725 2.46619888,5.13454521 C2.34491041,5.21540419 2.06190398,5.29626317 1.65760908,5.29626317 C1.23309944,5.29626317 0.788375052,5.21540419 0.303221174,5.03347148 C0.242576939,5.01325674 0.181932704,5.05368623 0.181932704,5.11433046 L0.181932704,5.80163179 L0.181932704,5.82184653 C0.202147449,5.88249077 0.202147449,5.92292026 0.283006429,5.96334975 C0.444724388,6.04420873 1.03095199,6.24635618 1.77889755,6.24635618 C2.87049378,6.24635618 3.96209,5.70055806 3.96209,4.46745863 C3.98230475,3.35564766 3.07264123,2.95135276 2.34491041,2.60770209" id="XMLID_11_"></path>
                            <path d="M13.1597989,4.9526125 L13.0991547,4.97282725 C12.9374367,5.05368623 12.5331418,5.25583368 12.047988,5.25583368 C10.9159623,5.25583368 10.2690904,4.50788812 10.2690904,3.17371495 C10.2690904,1.83954179 10.8957475,1.03095199 11.9266995,1.03095199 C12.3714239,1.03095199 12.7352893,1.19266995 12.9374367,1.29374367 L12.998081,1.29374367 L13.0587252,1.27352893 L13.07894,1.19266995 L13.07894,0.566012857 C13.07894,0.485153878 13.0385105,0.444724388 12.998081,0.424509643 C12.8767925,0.343650663 12.4320681,0.121288469 11.8256258,0.121288469 C10.1478019,0.121288469 9.15727944,1.27352893 9.15727944,3.17371495 C9.15727944,4.97282725 10.2084462,6.24635618 11.724552,6.24635618 C12.5937861,6.24635618 13.1800137,5.88249077 13.1800137,5.88249077 C13.2406579,5.84206128 13.2406579,5.78141704 13.2406579,5.78141704 L13.2406579,5.05368623 C13.2406579,4.97282725 13.1800137,4.9526125 13.1597989,4.9526125" id="XMLID_10_"></path>
                            <path d="M25.4907933,0.121288469 L24.641774,0.121288469 C24.6013446,0.121288469 24.5002708,0.121288469 24.5002708,0.262791684 L24.5002708,6.10485296 C24.5002708,6.24635618 24.6013446,6.24635618 24.641774,6.24635618 L25.4907933,6.24635618 C25.5312228,6.24635618 25.6322965,6.24635618 25.6322965,6.10485296 L25.6322965,0.262791684 C25.6120818,0.121288469 25.5312228,0.121288469 25.4907933,0.121288469" id="XMLID_9_"></path>
                            <path d="M18.2943441,0.121288469 L17.4453249,0.161717959 C17.4048954,0.161717959 17.3038216,0.161717959 17.3038216,0.303221174 L17.3038216,4.06316373 C17.3038216,4.62917658 17.0612447,5.1749747 16.3335139,5.1749747 C15.6057831,5.1749747 15.3632061,4.58874709 15.3632061,4.02273424 L15.3632061,0.262791684 C15.3632061,0.121288469 15.2621324,0.121288469 15.2217029,0.121288469 L14.3726836,0.121288469 C14.3322541,0.121288469 14.2311804,0.121288469 14.2311804,0.262791684 L14.2311804,3.94187526 C14.2311804,4.42702914 14.2716099,4.79089454 14.4737574,5.1749747 C14.817408,5.84206128 15.4642799,6.20592669 16.3335139,6.20592669 C17.1825332,6.20592669 17.8496198,5.84206128 18.1932704,5.1749747 C18.3954179,4.79089454 18.4358474,4.40681439 18.4358474,3.94187526 L18.4358474,0.262791684 C18.4358474,0.121288469 18.3347736,0.121288469 18.2943441,0.121288469" id="XMLID_8_"></path>
                            <path d="M32.6063835,0.121288469 L31.7573643,0.121288469 C31.7169348,0.121288469 31.615861,0.121288469 31.615861,0.262791684 L31.615861,6.10485296 C31.615861,6.24635618 31.7169348,6.24635618 31.7573643,6.24635618 L32.6063835,6.24635618 C32.646813,6.24635618 32.7478868,6.24635618 32.7478868,6.10485296 L32.7478868,0.262791684 C32.7478868,0.121288469 32.646813,0.121288469 32.6063835,0.121288469" id="XMLID_7_"></path>
                            <path d="M30.6051238,0.990522501 C30.6051238,1.09159623 30.5444796,1.11181097 30.4838353,1.13202571 L29.1900917,1.13202571 L29.1698769,1.13202571 L29.1698769,6.10485296 C29.1698769,6.24635618 29.0688032,6.24635618 29.0283737,6.24635618 L28.1995692,6.24635618 C28.1591397,6.24635618 28.0580659,6.24635618 28.0580659,6.10485296 L28.0580659,1.15224046 L28.0580659,1.13202571 L26.7441075,1.13202571 C26.6834633,1.13202571 26.622819,1.09159623 26.622819,0.990522501 L26.622819,0.262791684 C26.622819,0.141503214 26.703678,0.121288469 26.7643223,0.121288469 L30.4838353,0.121288469 C30.5444796,0.121288469 30.6253385,0.141503214 30.6253385,0.262791684 L30.6253385,0.990522501 L30.6051238,0.990522501 Z" id="XMLID_6_"></path>
                            <path d="M23.6310368,6.12506771 L22.4181521,3.67908357 L22.4181521,3.65886883 L22.4383669,3.65886883 C22.7618028,3.53758036 23.5097483,3.11307072 23.5097483,2.00125975 C23.5097483,1.15224046 23.1256682,0.141503214 21.2861264,0.141503214 L19.6285173,0.141503214 C19.5880878,0.141503214 19.4870141,0.141503214 19.4870141,0.283006429 L19.4870141,6.12506771 C19.4870141,6.26657092 19.5880878,6.26657092 19.6285173,6.26657092 L20.4775366,6.26657092 C20.5179661,6.26657092 20.6190398,6.26657092 20.6190398,6.12506771 L20.6190398,3.84080153 L21.4074149,3.84080153 L22.4585816,6.1654972 C22.4787963,6.20592669 22.5192258,6.24635618 22.6000848,6.24635618 C22.6000848,6.24635618 23.5501778,6.24635618 23.5906073,6.24635618 C23.6108221,6.24635618 23.6512515,6.18571194 23.6310368,6.12506771 Z M21.3669854,2.9715675 L20.5786103,2.9715675 L20.5786103,1.11181097 L21.3669854,1.11181097 C21.8117098,1.11181097 22.3372931,1.21288469 22.3372931,2.02147449 C22.3372931,2.91092327 21.5893476,2.9715675 21.3669854,2.9715675 L21.3669854,2.9715675 Z" id="形状"></path>
                            <path d="M40.3890603,2.60770209 C40.1060539,2.46619888 39.8432622,2.36512515 39.6613295,2.2034072 C39.4793968,2.06190398 39.3783231,1.87997128 39.3783231,1.71825332 C39.3783231,1.25331418 39.7624032,1.01073725 40.4901341,1.01073725 C41.0157174,1.01073725 41.4200123,1.19266995 41.5413008,1.25331418 L41.601945,1.27352893 C41.6423745,1.27352893 41.7030188,1.23309944 41.7030188,1.1724552 L41.7030188,0.525583368 C41.7030188,0.464939133 41.682804,0.424509643 41.6221598,0.384080153 C41.5413008,0.323435919 41.0157174,0.121288469 40.2879866,0.121288469 C39.6815443,0.121288469 39.1357461,0.303221174 38.7920955,0.606442347 C38.4686596,0.889448776 38.2867269,1.27352893 38.2867269,1.69803857 C38.2867269,2.00125975 38.4080153,2.32469566 38.5090891,2.48641362 C38.832525,2.99178225 39.3581083,3.25457393 39.8432622,3.47693612 C40.0858392,3.59822459 40.3284161,3.71951306 40.5103488,3.84080153 C40.7529257,4.02273424 40.8742142,4.24509643 40.8742142,4.50788812 C40.8742142,4.7706798 40.7529257,4.97282725 40.5103488,5.13454521 C40.3890603,5.21540419 40.1060539,5.29626317 39.701759,5.29626317 C39.2772494,5.29626317 38.832525,5.21540419 38.3473711,5.03347148 C38.2867269,5.01325674 38.2260826,5.05368623 38.2260826,5.11433046 L38.2260826,5.80163179 L38.2260826,5.82184653 C38.2462974,5.88249077 38.2462974,5.92292026 38.3271564,5.96334975 C38.4888743,6.04420873 39.0751019,6.24635618 39.8230475,6.24635618 C40.9146437,6.24635618 42.0062399,5.70055806 42.0062399,4.46745863 C42.0062399,3.35564766 41.1167911,2.95135276 40.3890603,2.60770209" id="XMLID_3_"></path>
                            <path d="M8.42954863,1.13202571 C8.5508371,1.11181097 8.5508371,1.01073725 8.5508371,0.990522501 L8.5508371,0.283006429 C8.5508371,0.242576939 8.5508371,0.141503214 8.40933388,0.141503214 L5.13454521,0.141503214 C5.09411572,0.141503214 4.99304199,0.141503214 4.99304199,0.283006429 L4.99304199,6.12506771 C4.99304199,6.26657092 5.09411572,6.26657092 5.13454521,6.26657092 L8.40933388,6.26657092 C8.49019286,6.26657092 8.53062235,6.20592669 8.53062235,6.12506771 L8.53062235,5.41755164 C8.53062235,5.37712215 8.53062235,5.27604842 8.38911914,5.27604842 L6.10485296,5.27604842 L6.10485296,3.71951306 L8.00503898,3.71951306 C8.10611271,3.71951306 8.1465422,3.67908357 8.1465422,3.57800985 L8.1465422,2.85027903 C8.1465422,2.74920531 8.10611271,2.70877582 8.00503898,2.70877582 L6.10485296,2.70877582 L6.10485296,1.15224046" id="XMLID_2_"></path>
                            <path d="M37.1547011,1.13202571 C37.2759896,1.11181097 37.2759896,1.01073725 37.2759896,0.990522501 L37.2759896,0.283006429 C37.2759896,0.242576939 37.2759896,0.141503214 37.1344864,0.141503214 L33.8596977,0.141503214 C33.8192682,0.141503214 33.7181945,0.141503214 33.7181945,0.283006429 L33.7181945,6.12506771 C33.7181945,6.26657092 33.8192682,6.26657092 33.8596977,6.26657092 L37.1344864,6.26657092 C37.2153454,6.26657092 37.2557749,6.20592669 37.2557749,6.12506771 L37.2557749,5.41755164 C37.2557749,5.37712215 37.2557749,5.27604842 37.1142717,5.27604842 L34.8300055,5.27604842 L34.8300055,3.71951306 L36.7301915,3.71951306 C36.8312652,3.71951306 36.8716947,3.67908357 36.8716947,3.57800985 L36.8716947,2.85027903 C36.8716947,2.74920531 36.8312652,2.70877582 36.7301915,2.70877582 L34.8300055,2.70877582 L34.8300055,1.15224046" id="XMLID_1_"></path>
                        </g>
                    </g>
                    <g>
                        <path d="M77.4426878,2.80984954 C77.4629025,2.89070852 77.503332,2.9715675 77.6044057,2.9715675 L79.9493161,2.9715675 C80.0908193,2.9715675 80.1312488,2.91092327 80.1110341,2.80984954 C79.5450212,0.970307756 78.615143,0.363865408 78.2512775,0.202147449 C78.2512775,0.202147449 78.1299891,0.161717959 78.0289154,0.161717959 L76.7351717,0.161717959 C76.6543127,0.161717959 76.634098,0.222362194 76.6543127,0.303221174 C76.8362454,0.747945562 77.3213993,1.92040077 77.4426878,2.80984954" id="XMLID_47_"></path>
                        <g>
                            <path d="M88.520368,2.32469566 L91.7345124,2.32469566 C91.8153714,2.32469566 91.8760156,2.26405143 91.8760156,2.16297771 L91.8760156,0.929878266 C91.8760156,0.849019286 91.8153714,0.788375052 91.7345124,0.788375052 L81.7079989,0.788375052 C81.6271399,0.788375052 81.5664957,0.869234031 81.5664957,0.929878266 L81.5664957,2.16297771 C81.5664957,2.24383669 81.6271399,2.32469566 81.7079989,2.32469566 L85.5285857,2.32469566 C85.6094447,2.32469566 85.6903037,2.36512515 85.6903037,2.52684311 L85.6903037,14.8376228 C85.6903037,14.9589112 85.58923,14.979126 85.508371,14.979126 L84.4167747,14.979126 C84.3359158,14.979126 84.234842,14.9589112 84.234842,14.817408 L84.234842,5.98356449 C84.234842,5.90270551 84.1741978,5.82184653 84.0933388,5.82184653 L81.7282137,5.82184653 C81.6473547,5.82184653 81.5664957,5.88249077 81.5664957,5.98356449 L81.5664957,14.7769785 C81.5664957,14.9589112 81.465422,14.979126 81.3643483,14.979126 L80.272752,14.979126 C80.1918931,14.979126 80.0706046,14.9589112 80.0706046,14.817408 L80.0706046,5.41755164 C80.0706046,4.30574067 79.5248065,4.00251949 78.9183641,4.00251949 L75.6435755,4.00251949 C75.5627165,4.00251949 75.5020722,4.06316373 75.5020722,4.14402271 L75.5020722,5.37712215 C75.5020722,5.45798113 75.5627165,5.51862536 75.6435755,5.51862536 L77.260755,5.51862536 C77.341614,5.51862536 77.422473,5.55905485 77.422473,5.68034332 L77.422473,15.0801997 C77.422473,16.1920107 77.9682711,16.4750171 78.5747135,16.4750171 L91.7345124,16.4750171 C91.8153714,16.4750171 91.8760156,16.4143729 91.8760156,16.3335139 L91.8760156,15.1004144 C91.8760156,15.0195555 91.8153714,14.9589112 91.7345124,14.9589112 L88.5405827,14.9589112 C88.4597237,14.9589112 88.35865,14.9386965 88.35865,14.7769785 L88.35865,7.49967036 C88.35865,7.35816715 88.4597237,7.3379524 88.5405827,7.3379524 L91.7547271,7.3379524 C91.8153714,7.3379524 91.8962304,7.27730817 91.8962304,7.19644919 L91.8962304,5.96334975 C91.8962304,5.88249077 91.8355861,5.80163179 91.7547271,5.80163179 L88.5405827,5.80163179 C88.4597237,5.80163179 88.35865,5.78141704 88.35865,5.63991383 L88.35865,2.46619888 C88.35865,2.34491041 88.4597237,2.32469566 88.520368,2.32469566" id="XMLID_46_"></path>
                            <path d="M105.864619,7.35816715 L110.797017,7.35816715 C110.877876,7.35816715 110.93852,7.29752291 110.93852,7.21666393 L110.93852,5.98356449 C110.93852,5.90270551 110.877876,5.82184653 110.797017,5.82184653 L104.267654,5.82184653 C104.186795,5.82184653 104.085722,5.78141704 104.085722,5.61969909 L104.085722,4.71003556 C104.085722,4.5483176 104.166581,4.50788812 104.24744,4.50788812 L110.372507,4.50788812 C110.453366,4.50788812 110.51401,4.44724388 110.51401,4.3663849 L110.51401,3.13328546 C110.51401,3.05242648 110.453366,2.99178225 110.372507,2.99178225 L108.775542,2.99178225 C108.714898,2.99178225 108.654254,2.9715675 108.694683,2.85027903 C108.896831,2.08211873 109.220267,1.29374367 109.381985,0.929878266 C109.402199,0.849019286 109.381985,0.788375052 109.301126,0.788375052 L108.007382,0.788375052 C107.906308,0.788375052 107.78502,0.828804541 107.78502,0.849019286 C107.461584,0.990522501 106.673209,1.47567638 106.127411,2.91092327 C106.127411,2.93113801 106.086981,2.99178225 106.006122,3.01199699 L104.287869,3.01199699 C104.20701,3.01199699 104.105936,2.99178225 104.105936,2.83006429 L104.105936,0.303221174 C104.105936,0.242576939 104.045292,0.181932704 103.964433,0.181932704 L101.579093,0.181932704 C101.518449,0.181932704 101.457805,0.242576939 101.457805,0.303221174 L101.457805,2.83006429 C101.457805,2.99178225 101.336516,3.01199699 101.255657,3.01199699 L99.5576187,3.01199699 C99.4767597,3.01199699 99.4363302,2.93113801 99.4363302,2.91092327 C98.8905321,1.49589112 98.0819423,1.01073725 97.7787211,0.849019286 C97.7787211,0.849019286 97.6574327,0.788375052 97.5563589,0.788375052 L96.2221858,0.788375052 C96.1413268,0.788375052 96.1008973,0.849019286 96.1413268,0.929878266 C96.3030448,1.29374367 96.6264807,2.08211873 96.8286281,2.85027903 C96.8488429,2.9715675 96.8084134,2.99178225 96.7477691,2.99178225 L95.1305895,2.99178225 C95.0497306,2.99178225 94.9890863,3.05242648 94.9890863,3.13328546 L94.9890863,4.3663849 C94.9890863,4.44724388 95.0497306,4.50788812 95.1305895,4.50788812 L101.255657,4.50788812 C101.336516,4.50788812 101.43759,4.5483176 101.43759,4.71003556 L101.43759,5.61969909 C101.43759,5.80163179 101.336516,5.82184653 101.235443,5.82184653 L94.7060799,5.82184653 C94.6252209,5.82184653 94.5645767,5.88249077 94.5645767,5.98356449 L94.5645767,7.21666393 C94.5645767,7.29752291 94.6252209,7.35816715 94.7060799,7.35816715 L99.6586924,7.35816715 C99.8810546,7.35816715 99.8608399,7.45924087 99.6991219,7.58052934 C98.2840898,8.63169608 96.5860512,9.29878266 94.7060799,9.56157434 C94.6252209,9.58178909 94.5645767,9.60200383 94.5645767,9.70307756 L94.5645767,10.936177 C94.5645767,11.017036 94.6050062,11.097895 94.7262947,11.0776802 C95.332737,11.0372507 95.9391793,10.9563917 96.5456217,10.8351033 C96.6466954,10.8148885 96.6871249,10.8148885 96.6871249,10.9563917 L96.6871249,11.7649815 C96.6871249,11.8458405 96.7477691,11.9064848 96.8286281,11.9064848 L98.4862372,11.9064848 C98.6075257,11.9064848 98.6277404,11.9469142 98.5873109,12.0682027 C97.9000096,14.0492477 95.3125223,14.7971933 94.7262947,14.9184817 C94.6252209,14.9386965 94.5645767,15.0195555 94.5645767,15.1004144 L94.5645767,16.3132991 C94.5645767,16.3941581 94.6252209,16.4750171 94.7262947,16.4548024 C95.6966024,16.3941581 99.8810546,16.0909369 101.376946,12.1288469 C101.457805,11.9469142 101.478019,11.9064848 101.639737,11.9064848 L106.55192,11.9064848 C106.632779,11.9064848 106.733853,11.9469142 106.733853,12.0884175 L106.733853,12.6342156 C106.733853,14.2716099 106.733853,14.9386965 104.995385,14.9386965 L102.893052,14.9386965 C102.812193,14.9386965 102.751548,15.0195555 102.751548,15.1004144 L102.751548,16.3335139 C102.751548,16.4143729 102.812193,16.4750171 102.893052,16.4750171 L105.520968,16.4750171 C107.724376,16.4750171 109.381985,16.4750171 109.381985,12.755504 L109.381985,11.805411 C109.381985,11.5224046 109.301126,11.3000424 109.179837,11.097895 L109.179837,11.0776802 C109.078764,10.936177 109.078764,10.855318 109.280911,10.8957475 C109.78628,10.9766065 110.291648,11.0372507 110.797017,11.0776802 C110.898091,11.0776802 110.93852,11.017036 110.93852,10.936177 L110.93852,9.70307756 C110.93852,9.60200383 110.898091,9.58178909 110.797017,9.56157434 C108.917046,9.29878266 107.219007,8.63169608 105.803975,7.58052934 C105.662472,7.45924087 105.622042,7.35816715 105.864619,7.35816715 M106.855142,10.2690904 C107.077504,10.3499494 107.037074,10.4105936 106.855142,10.4105936 L98.6479552,10.4105936 C98.4660225,10.4105936 98.4053782,10.3499494 98.6479552,10.2690904 C100.184276,9.70307756 101.558878,8.85405827 102.650475,7.82310628 L102.751548,7.78267679 L102.852622,7.82310628 C103.944218,8.85405827 105.318821,9.7232923 106.855142,10.2690904" id="形状"></path>
                            <path d="M16.4952318,14.9386965 C13.948174,13.6449528 11.1787539,10.5723116 10.2286609,7.39859664 C10.1882314,7.25709342 10.2084462,7.19644919 10.3903789,7.19644919 L15.9494337,7.19644919 C16.0302927,7.19644919 16.0909369,7.13580495 16.0909369,7.05494597 L16.0909369,5.80163179 C16.0909369,5.72077281 16.0302927,5.63991383 15.9494337,5.63991383 L9.92543975,5.63991383 C9.80415128,5.63991383 9.74350705,5.53884011 9.7232923,5.37712215 C9.70307756,5.15475995 9.68286281,4.89196827 9.68286281,4.71003556 L9.68286281,2.24383669 C9.68286281,2.14276296 9.76372179,2.08211873 9.86479552,2.08211873 L15.4440651,2.08211873 C15.5249241,2.08211873 15.5855683,2.02147449 15.5855683,1.94061551 L15.5855683,0.687301327 C15.5855683,0.606442347 15.5249241,0.525583368 15.4440651,0.525583368 L1.25331418,0.525583368 C1.1724552,0.525583368 1.11181097,0.606442347 1.11181097,0.687301327 L1.11181097,1.94061551 L1.11181097,1.94061551 L1.11181097,1.94061551 C1.11181097,2.02147449 1.1724552,2.08211873 1.25331418,2.08211873 L6.83258378,2.08211873 C6.9336575,2.08211873 7.01451648,2.16297771 7.01451648,2.24383669 L7.01451648,4.66960607 C7.01451648,4.91218301 6.99430174,5.15475995 6.97408699,5.37712215 C6.95387225,5.53884011 6.91344276,5.63991383 6.77193955,5.63991383 L0.747945562,5.63991383 C0.667086582,5.63991383 0.606442347,5.72077281 0.606442347,5.80163179 L0.606442347,7.05494597 C0.606442347,7.13580495 0.667086582,7.19644919 0.747945562,7.19644919 L6.26657092,7.19644919 C6.44850363,7.19644919 6.46871837,7.23687868 6.42828888,7.39859664 C5.45798113,10.5723116 2.70877582,13.6449528 0.161717959,14.9386965 C0.0404294898,14.9993407 0,15.0397702 0,15.1610587 L0,16.3739434 C0,16.4548024 0.0606442347,16.5356613 0.161717959,16.5154466 C1.1724552,16.4345876 5.29626317,14.736549 8.1465422,9.5413596 C8.20718643,9.42007113 8.24761592,9.35942689 8.3284749,9.35942689 C8.40933388,9.35942689 8.44976337,9.42007113 8.51040761,9.5413596 C11.3606866,14.736549 15.4844946,16.4345876 16.4952318,16.5154466 C16.5760908,16.5154466 16.6367351,16.4548024 16.6367351,16.3739434 L16.6367351,15.1610587 C16.6569498,15.0397702 16.6165203,15.0195555 16.4952318,14.9386965" id="XMLID_43_"></path>
                            <path d="M22.8830912,3.80037204 C22.8022323,3.80037204 22.7213733,3.84080153 22.7213733,3.94187526 L22.7213733,5.7612023 C22.7213733,5.86227602 22.8022323,5.92292026 22.8830912,5.943135 C23.4693188,6.08463822 24.1970497,6.59000684 24.1970497,8.61148133 L24.1970497,10.1073725 C24.1970497,12.2703502 23.8736137,12.6948598 23.1256682,13.1193694 C23.0448092,13.1597989 22.9639502,13.2002284 22.9639502,13.3013022 L22.9639502,14.5344016 C22.9639502,14.6152606 23.0245945,14.6961196 23.1256682,14.6759048 C23.9746875,14.5546163 26.4206716,13.9279592 26.4206716,10.1882314 L26.4206716,7.82310628 C26.4004569,4.12380796 23.5906073,3.86101628 22.8830912,3.80037204" id="XMLID_42_"></path>
                            <path d="M30.6859828,3.80037204 C29.9784667,3.86101628 27.1484024,4.12380796 27.1484024,7.84332103 L27.1484024,10.2084462 C27.1484024,13.948174 29.5943865,14.5748311 30.4434058,14.6961196 C30.5444796,14.7163343 30.6051238,14.6354753 30.6051238,14.5546163 L30.6051238,13.3215169 C30.6051238,13.2204432 30.5242648,13.1800137 30.4434058,13.1395842 C29.6954603,12.7150745 29.3720244,12.2905649 29.3720244,10.1275872 L29.3720244,8.63169608 C29.3720244,6.61022159 30.0997552,6.08463822 30.6859828,5.96334975 C30.7668418,5.943135 30.827486,5.88249077 30.827486,5.78141704 L30.827486,3.96209 C30.8477007,3.84080153 30.7668418,3.80037204 30.6859828,3.80037204" id="XMLID_41_"></path>
                            <path d="M35.3353741,14.9386965 C34.5469991,14.6152606 34.2639926,13.7460265 34.2639926,11.7649815 L34.2639926,1.59696485 C34.2639926,0.990522501 33.7788387,0.505368623 33.1723964,0.505368623 L20.4168924,0.505368623 C19.81045,0.505368623 19.3252961,0.990522501 19.3252961,1.59696485 L19.3252961,11.7649815 C19.3252961,13.7460265 19.0422897,14.6152606 18.2539147,14.9386965 C18.1730557,14.9589112 18.0921967,14.979126 18.0921967,15.1206292 L18.0921967,16.3537286 C18.0921967,16.4345876 18.1528409,16.5154466 18.2539147,16.4952318 C19.1231487,16.3739434 22.034072,15.5855683 22.034072,12.2703502 L22.034072,2.28426617 C22.034072,2.12254822 22.1351457,2.08211873 22.2160047,2.08211873 L31.3934988,2.08211873 C31.4743578,2.08211873 31.5754316,2.12254822 31.5754316,2.28426617 L31.5754316,12.2703502 C31.5754316,15.6057831 34.4863548,16.3739434 35.3555888,16.4952318 C35.4364478,16.4952318 35.5173068,16.4345876 35.5173068,16.3537286 L35.5173068,15.1206292 C35.4768773,14.979126 35.3960183,14.979126 35.3353741,14.9386965" id="XMLID_40_"></path>
                            <path d="M54.1553016,12.047988 L54.1553016,0.687301327 C54.1553016,0.606442347 54.0946574,0.525583368 53.9935837,0.525583368 L38.0239352,0.525583368 C37.9430762,0.525583368 37.8622172,0.606442347 37.8622172,0.687301327 L37.8622172,16.3537286 C37.8622172,16.4345876 37.9228615,16.5154466 38.0239352,16.5154466 L51.830606,16.5154466 C52.9626317,16.5154466 54.1553016,15.6462126 54.1553016,14.1705362 L54.1553016,12.047988 L54.1553016,12.047988 Z M51.4667405,14.0694625 C51.4667405,14.4535426 51.2039489,14.9589112 50.5772918,14.9589112 C50.5772918,14.9589112 40.81357,14.9589112 40.6922815,14.9589112 C40.570993,14.9589112 40.570993,14.8376228 40.570993,14.8376228 C40.570993,14.8376228 40.570993,2.32469566 40.570993,2.2034072 C40.570993,2.08211873 40.6922815,2.08211873 40.6922815,2.08211873 C40.6922815,2.08211873 51.2039489,2.08211873 51.3252373,2.08211873 C51.4465258,2.08211873 51.4465258,2.2034072 51.4465258,2.2034072 L51.4465258,12.047988 L51.4465258,12.047988 L51.4465258,14.0694625 L51.4667405,14.0694625 Z" id="形状"></path>
                            <path d="M50.6177213,11.7649815 C50.3751443,11.0776802 49.8091315,10.3095199 49.5867693,10.2084462 C49.5867693,10.2084462 49.5059103,10.1680167 49.4250513,10.1680167 L48.5153878,10.1680167 C48.4749583,10.1680167 48.4345288,10.2084462 48.4547436,10.2690904 C48.5558173,10.5116674 48.7781795,11.0574655 48.9196827,11.5628341 L48.9196827,11.5628341 C48.9196827,11.5628341 48.9398974,11.6436931 48.9398974,11.724552 C48.9601122,11.8660553 48.8792532,11.9873437 48.6973205,11.9873437 C48.6973205,11.9873437 48.6973205,11.9873437 48.6973205,11.9873437 C48.6973205,11.9873437 47.5248653,11.9873437 47.4035768,11.9873437 C47.2822883,11.9873437 47.2822883,11.8660553 47.2822883,11.8660553 L47.2822883,8.89448776 C47.2822883,8.89448776 47.2822883,8.77319929 47.4035768,8.77319929 C47.5248653,8.77319929 50.0517084,8.77319929 50.0517084,8.77319929 C50.1123526,8.77319929 50.1932116,8.71255506 50.1932116,8.63169608 L50.1932116,7.37838189 C50.1932116,7.29752291 50.1325674,7.21666393 50.0517084,7.21666393 L47.4237916,7.21666393 C47.4237916,7.21666393 47.3025031,7.21666393 47.3025031,7.09537546 L47.3025031,5.15475995 C47.3025031,5.03347148 47.4237916,5.03347148 47.4237916,5.03347148 L50.3953591,5.03347148 C50.476218,5.03347148 50.5368623,4.97282725 50.5368623,4.89196827 L50.5368623,3.63865408 C50.5368623,3.5577951 50.476218,3.47693612 50.3953591,3.47693612 L41.8040925,3.47693612 C41.7232335,3.47693612 41.6625893,3.53758036 41.6625893,3.63865408 L41.6625893,4.89196827 C41.6625893,4.97282725 41.7232335,5.03347148 41.8040925,5.03347148 L44.4724388,5.03347148 C44.5937273,5.03347148 44.5937273,5.15475995 44.5937273,5.15475995 C44.5937273,5.15475995 44.5937273,6.97408699 44.5937273,7.09537546 C44.5937273,7.21666393 44.4724388,7.21666393 44.4724388,7.21666393 L42.0062399,7.21666393 C41.9253809,7.21666393 41.8647367,7.27730817 41.8647367,7.37838189 L41.8647367,8.63169608 C41.8647367,8.7327698 41.9253809,8.77319929 42.0062399,8.77319929 C42.0062399,8.77319929 44.3511503,8.77319929 44.4724388,8.77319929 C44.5937273,8.77319929 44.5937273,8.89448776 44.5937273,8.89448776 L44.5937273,11.8660553 C44.5937273,11.8660553 44.5937273,11.9873437 44.4724388,11.9873437 C44.3511503,11.9873437 41.4604418,11.9873437 41.4604418,11.9873437 C41.3795828,11.9873437 41.3189386,12.0682027 41.3189386,12.1490617 L41.3189386,13.4023759 C41.3189386,13.5034496 41.3795828,13.5438791 41.4604418,13.5438791 L49.687843,13.5438791 C50.5368623,13.5438791 50.7794392,13.0385105 50.7794392,12.4927124 C50.7390097,12.3714239 50.7390097,12.1086322 50.6177213,11.7649815 Z" id="XMLID_37_"></path>
                            <path d="M61.6145425,6.28678567 C62.6252797,4.79089454 62.7667829,2.34491041 62.7667829,1.61717959 C62.7667829,0.849019286 62.0996964,0.525583368 61.735831,0.525583368 L56.9045069,0.525583368 C56.8236479,0.525583368 56.742789,0.606442347 56.742789,0.687301327 L56.742789,16.3537286 C56.742789,16.4345876 56.8034332,16.5154466 56.9045069,16.5154466 L58.9664109,16.5154466 C59.0472699,16.5154466 59.1281289,16.4548024 59.1281289,16.3537286 L59.1281289,14.0088182 C59.1281289,14.0088182 59.1281289,13.8875298 59.2494173,13.8875298 C59.3707058,13.8875298 60.2601546,13.8875298 60.2601546,13.8875298 C61.0687444,13.8875298 62.362488,13.2406579 62.685924,11.8256258 C63.0497894,10.2286609 62.9891451,7.92418 61.6145425,6.44850363 C61.574113,6.38785939 61.574113,6.32721516 61.6145425,6.28678567 Z M60.5633758,11.7649815 C60.1995103,12.1490617 59.7750007,12.2097059 59.2494173,12.2097059 C59.2494173,12.2097059 59.1281289,12.2097059 59.1281289,12.0884175 C59.1281289,11.967129 59.1281289,2.32469566 59.1281289,2.2034072 C59.1281289,2.08211873 59.2494173,2.08211873 59.2494173,2.08211873 L60.3005841,2.08211873 C60.62402,2.08211873 60.6644495,2.28426617 60.6644495,2.5672726 C60.6644495,2.83006429 60.543161,5.33669266 59.7143565,6.50914786 C59.6941417,6.54957735 59.673927,6.61022159 59.7143565,6.65065108 C59.9569334,6.91344276 60.8261674,7.94439475 60.9070264,8.99556149 C60.9676707,10.2084462 61.0283149,11.2596129 60.5633758,11.7649815 Z" id="形状"></path>
                            <g transform="translate(62.867857, 0.808590)">
                                <path d="M1.01073725,1.65760908 L9.74350705,1.65760908 C9.80415128,1.65760908 9.88501026,1.59696485 9.88501026,1.51610587 L9.88501026,0.262791684 C9.88501026,0.181932704 9.82436603,0.101073725 9.74350705,0.101073725 L1.01073725,0.101073725 C0.929878266,0.101073725 0.869234031,0.181932704 0.869234031,0.262791684 L0.869234031,1.51610587 C0.869234031,1.59696485 0.929878266,1.65760908 1.01073725,1.65760908 Z" id="XMLID_34_"></path>
                                <path d="M10.6329558,5.21540419 C10.6936001,5.21540419 10.774459,5.15475995 10.774459,5.07390097 L10.774459,3.82058679 C10.774459,3.73972781 10.7138148,3.65886883 10.6329558,3.65886883 L0.262791684,3.65886883 C0.181932704,3.65886883 0.121288469,3.73972781 0.121288469,3.82058679 L0.121288469,5.07390097 C0.121288469,5.15475995 0.181932704,5.21540419 0.262791684,5.21540419 C0.262791684,5.21540419 3.86101628,5.21540419 3.98230475,5.21540419 C4.10359322,5.21540419 4.10359322,5.33669266 4.10359322,5.33669266 L4.10359322,15.5451388 C4.10359322,15.6259978 4.16423745,15.7068568 4.26531118,15.7068568 L6.67086582,15.7068568 C6.7517248,15.7068568 6.83258378,15.6259978 6.83258378,15.5451388 L6.83258378,5.33669266 C6.83258378,5.33669266 6.83258378,5.21540419 6.95387225,5.21540419 C7.07516072,5.21540419 10.6329558,5.21540419 10.6329558,5.21540419 Z" id="XMLID_33_"></path>
                                <path d="M10.7138148,13.2810874 C10.1680167,13.0587252 9.96586924,12.4522829 9.96586924,11.0574655 L9.96586924,9.76372179 C9.96586924,9.76372179 9.96586924,9.76372179 9.96586924,9.76372179 L9.96586924,7.01451648 C9.96586924,6.9336575 9.90522501,6.87301327 9.80415128,6.87301327 L8.20718643,6.87301327 C8.10611271,6.87301327 8.06568322,6.9336575 8.06568322,7.01451648 L8.06568322,9.19770893 L8.06568322,9.78393654 L8.06568322,11.4213309 C8.06568322,13.7662413 10.1073725,14.3120394 10.7138148,14.3928984 C10.774459,14.3928984 10.8148885,14.3524689 10.8148885,14.2918247 L10.8148885,13.4225906 C10.8148885,13.3013022 10.7542443,13.3013022 10.7138148,13.2810874 Z" id="XMLID_32_"></path>
                                <path d="M2.62791684,6.85279852 L1.03095199,6.85279852 C0.929878266,6.85279852 0.889448776,6.91344276 0.889448776,6.99430174 L0.889448776,9.78393654 C0.889448776,9.78393654 0.889448776,9.78393654 0.889448776,9.80415128 L0.889448776,11.0776802 C0.889448776,12.4724976 0.687301327,13.07894 0.141503214,13.3013022 C0.101073725,13.3215169 0.0404294898,13.3215169 0.0404294898,13.4225906 L0.0404294898,14.2918247 C0.0404294898,14.3524689 0.0808589796,14.3928984 0.141503214,14.3928984 C0.747945562,14.3120394 2.7896348,13.7662413 2.7896348,11.4213309 L2.7896348,9.78393654 L2.7896348,9.07642046 L2.7896348,7.01451648 C2.7896348,6.91344276 2.70877582,6.85279852 2.62791684,6.85279852 Z" id="XMLID_31_"></path>
                            </g>
                        </g>
                    </g>
                </g>
                <g id="编组">
                    <path d="M27.9165627,29.8369635 C25.0460689,28.3612871 20.8009725,29.7763193 20.5381808,29.796534 C20.2753891,29.796534 20.0732417,29.8571782 19.8508795,30.1199699 C19.81045,30.1806142 19.6083026,30.4029763 19.5678731,30.4636206 C19.3252961,30.746627 19.3050814,30.9689892 19.3455109,31.2317809 C19.3657256,31.4945726 18.7390685,35.9216017 20.6998988,38.4888743 C21.1850527,39.1761756 21.8925687,39.9645507 22.741588,40.6720668 C23.8129695,41.5615155 24.6822035,42.0870989 25.5716523,42.3903201 C28.2804281,43.2797689 31.6765053,42.2892464 32.2829476,42.1073136 L32.4244508,42.0870989 C32.808531,42.0668842 33.1319669,41.7838777 33.1926111,41.5817303 C33.3947586,41.5008713 33.596906,41.1167911 33.5564766,40.732711 L33.5564766,40.5912078 C33.6171208,39.9645507 34.0012009,36.4471851 32.6265983,33.9405567 C32.1818739,33.1319669 31.4945726,32.3435919 30.4434058,31.4541431 C29.5741718,30.746627 28.684723,30.1806142 27.9165627,29.8369635" id="XMLID_53_" fill="#A70D34"></path>
                    <path d="M40.2677719,19.972168 C40.732711,18.9007865 42.3701053,14.979126 42.3094611,12.8161483 C42.2690316,10.8957475 42.0870989,10.5723116 41.9455957,9.74350705 C41.9253809,9.58178909 41.8849515,9.46050062 41.8040925,9.39985638 C41.7434482,9.3189974 41.6423745,9.25835317 41.4806566,9.21792368 C40.6922815,8.97534674 40.3890603,8.7327698 38.5090891,8.40933388 C36.3865408,8.04546847 32.2627329,9.07642046 31.1307072,9.37964164 C26.8856107,10.4914526 22.0745014,14.979126 21.9734277,18.3145589 C21.9329982,18.3347736 22.2766489,23.3076009 22.2160047,24.1364054 C22.2160047,24.2172644 22.1957899,24.2779086 22.1755752,24.3183381 C22.034072,24.8237068 22.0947162,25.1875722 22.3979374,25.5110081 L23.0448092,26.2589536 C23.3278156,26.6026043 23.6714663,26.703678 24.1970497,26.6430338 C24.2172644,26.6430338 24.2981234,26.622819 24.3789824,26.622819 C25.2280016,26.6834633 30.0997552,27.73463 30.1199699,27.7144153 C33.4149733,28.1389249 38.5495185,24.0353317 40.2677719,19.972168" id="XMLID_52_" fill="#F08201"></path>
                    <path d="M8.34868965,10.3499494 C7.21666393,9.56157434 6.22614143,9.23813842 5.11433046,8.99556149 C4.1844522,8.79341404 2.2034072,8.59126659 1.19266995,8.57105184 C1.05116674,8.57105184 0.768160307,8.57105184 0.485153878,8.87427302 C0.202147449,9.17749419 0.242576939,9.46050062 0.262791684,9.60200383 C0.384080153,10.6127411 0.808589796,12.5533566 1.11181097,13.4630201 C1.47567638,14.5546163 1.87997128,15.5047093 2.7896348,16.5356613 C3.65886883,17.4857543 5.19518944,18.860357 6.08463822,19.6285173 C8.10611271,21.3467706 9.76372179,20.2147449 11.3606866,19.4870141 C11.4819751,19.4465846 11.6436931,19.4263699 11.7851963,19.2242224 L12.0277732,18.941216 C12.1894912,18.779498 12.1894912,18.6379948 12.2097059,18.5167063 C12.7757188,16.8590973 13.705597,15.0801997 11.7851963,13.2608727 C10.9159623,12.4724976 9.37964164,11.097895 8.34868965,10.3499494" id="XMLID_51_" fill="#4B4948"></path>
                    <path d="M18.9614307,0.242576939 C18.860357,0.0606442347 18.698639,0.0404294898 18.5571358,0.0404294898 C18.4156326,0.0404294898 18.2741294,0.0404294898 18.1326262,0.202147449 C16.6569498,0.889448776 14.2311804,4.60896184 13.867315,9.96586924 C13.6449528,13.2406579 13.867315,15.5451388 16.2728697,16.3941581 L16.3537286,16.4345876 L16.4345876,16.5154466 C16.5558761,16.6569498 16.7378088,16.6367351 16.879312,16.5963056 C17.1016742,16.5356613 17.2836069,16.4345876 17.4857543,16.4548024 C17.6879018,16.4750171 17.8496198,16.5760908 18.071982,16.6771646 C18.1932704,16.7378088 18.3954179,16.7580235 18.5167063,16.6367351 L18.5975653,16.5760908 L18.6784243,16.5558761 C21.1850527,16.0302927 21.6904213,13.7662413 21.9127835,10.4914526 C22.2362194,5.13454521 20.3360334,1.13202571 18.9614307,0.242576939" id="XMLID_50_" fill="#A70D34"></path>
                    <path d="M15.84836,32.6872425 C15.8079305,32.4850951 15.7877158,32.2829476 15.767501,32.1212297 C15.7270715,31.8988675 15.6259978,31.7371495 15.4844946,31.5956463 L15.2419177,31.3732841 C15.1004144,31.2317809 14.9184817,31.1307072 14.6759048,31.1307072 C14.5141868,31.1307072 14.3120394,31.1307072 14.0896772,31.1104924 C13.705597,31.0498482 9.92543975,30.3423321 6.42828888,31.7169348 C5.09411572,32.2020886 3.82058679,32.88939 2.2034072,34.708717 C1.15224046,35.901387 0.444724388,37.1547011 0.303221174,38.0643647 C-0.424509643,41.2785091 1.90018602,44.77566 1.90018602,44.77566 C1.90018602,44.77566 1.77889755,45.3618876 2.46619888,45.9683299 C3.15350021,46.5747723 3.71951306,46.3928396 3.71951306,46.3928396 C3.71951306,46.3928396 7.45924087,48.2728108 10.5723116,47.1812146 C11.4415456,46.9184229 12.6140008,46.0896184 13.6853823,44.8969484 C15.2823472,43.0978361 15.8281453,41.7434482 16.1515812,40.3688456 C17.1016742,36.7301915 15.9494337,33.0713227 15.84836,32.6872425" id="XMLID_49_" fill="#4B4948"></path>
                    <path d="M5.78141704,29.4730981 C3.57800985,30.1199699 2.04168924,27.9974217 2.04168924,27.9974217 C2.04168924,27.9974217 1.7991123,27.9165627 1.69803857,27.6133415 C1.67782383,27.5526973 1.67782383,27.5122678 1.65760908,27.4718383 L1.65760908,27.4718383 L1.65760908,27.4718383 C1.63739434,27.4314088 1.63739434,27.3909794 1.61717959,27.3303351 C1.55653536,27.0068992 1.71825332,26.8249665 1.71825332,26.8249665 C1.71825332,26.8249665 1.981045,24.2172644 4.20466694,23.6714663 L9.21792368,22.3372931 C11.9469142,21.6499918 14.2311804,23.6108221 14.2311804,23.6108221 C14.2311804,23.6108221 14.4535426,23.691681 14.5344016,24.015117 C14.6152606,24.3183381 14.4737574,24.5002708 14.4737574,24.5002708 C14.4737574,24.5002708 13.4832349,27.3505499 10.774459,28.1389249 L5.78141704,29.4730981 Z" id="XMLID_48_" fill="#F08201"></path>
                </g>
            </g>
        </g>
    </g>
</svg>