<?xml version="1.0" encoding="UTF-8"?>
<svg width="16px" height="16px" viewBox="0 0 16 16" version="1.1" xmlns="http://www.w3.org/2000/svg" xmlns:xlink="http://www.w3.org/1999/xlink">
    <title>personnel</title>
    <g id="研报网页" stroke="none" stroke-width="1" fill="none" fill-rule="evenodd">
        <g id="研报首页" transform="translate(-740.000000, -370.000000)" fill-rule="nonzero" stroke="#979797" stroke-width="1.5">
            <g id="编组-11" transform="translate(360.000000, 180.000000)">
                <g id="编组-5" transform="translate(379.000000, 188.000000)">
                    <g id="personnel" transform="translate(0.313504, 1.249735)">
                        <path d="M8.47416597,15.3903364 C6.19902053,15.3903364 3.12966127,14.7969276 2.27778094,14.1920893 L2.09793025,14.0644743 L2.0541164,13.8487136 C2.02826589,13.720848 1.94366271,13.2392466 2.05929653,12.8727609 L2.05739158,12.8722095 C2.21002153,12.1835867 2.56481014,11.6932793 3.08340775,11.4546592 C3.62839058,11.2043421 4.20848132,11.1134726 4.76977321,11.0255775 C5.34576997,10.9352428 5.8899173,10.8498208 6.40007632,10.6057533 C6.64304101,10.4903868 6.69990544,10.3529798 6.70070753,10.3138113 L6.70070753,10.0860862 C6.48494686,9.83658788 6.28851976,9.52178651 6.13913157,9.18629806 C6.09043837,9.1707911 6.04201253,9.15393062 5.9949235,9.13516519 C5.24454025,8.84130156 4.81410507,8.21253434 4.81410507,7.41070072 L4.81711289,7.35383629 C4.84946362,7.03712998 4.96294183,6.81892963 5.08918655,6.6706276 L5.09135887,6.09300995 C5.09135887,5.96676523 5.09924603,5.83508973 5.11639058,5.68379659 C5.09978075,3.96725271 5.77481821,3.28269049 6.28716625,3.01086748 C6.75676988,2.30917743 7.50198971,1.93587404 8.32559657,2.00906423 C8.66895548,2.03790584 8.83766053,2.09776138 8.97316265,2.1456525 C9.05069746,2.17367531 9.12226677,2.1989911 9.27678496,2.22619512 C9.56573582,2.27706063 9.92707478,2.29992004 10.0813423,2.30944479 C10.2337216,2.31870218 10.3349346,2.32495175 10.4734111,2.3869796 L11.3010953,2.77009181 L11.061389,3.14911004 C11.7070334,3.64346131 11.8931504,4.6191634 11.8297356,5.49988535 C11.8463455,5.64218847 11.8539653,5.76925198 11.8539653,5.89658286 L11.8545,6.68125521 C11.9717714,6.83281572 12.0710794,7.04884375 12.103731,7.35518981 L12.1069894,7.4139759 C12.1075409,8.20082057 11.6852602,8.82688076 10.9479108,9.13160594 L10.9479106,9.13160601 C10.9158082,9.14490044 10.8834279,9.15751383 10.8507916,9.16943765 C10.6976102,9.47770537 10.4919257,9.82542561 10.2388681,10.1032308 C10.2386008,10.1524755 10.2375146,10.2079864 10.2358938,10.2754617 C10.2633651,10.3385924 10.3686721,10.4917738 10.6140765,10.625889 C10.9258867,10.796499 11.5361559,10.9028754 12.0746218,10.9967527 C12.7042245,11.106939 13.3425165,11.218763 13.8602953,11.4522196 C14.3709891,11.7166735 14.7110895,12.1930781 14.871874,12.84417 C14.9273849,13.0188573 14.9575967,13.2822417 14.952968,13.6898008 L14.9499602,13.9493753 L14.7491718,14.1140031 C14.0077451,14.722384 10.7234607,15.3903364 8.47416579,15.3903364 L8.47416597,15.3903364 Z"></path>
                    </g>
                </g>
            </g>
        </g>
    </g>
</svg>